<?xml version="1.0" encoding="UTF-8"?>
<!DOCTYPE svg PUBLIC "-//W3C//DTD SVG 1.1//EN" "http://www.w3.org/Graphics/SVG/1.1/DTD/svg11.dtd">
<!-- Creator: CorelDRAW X8 -->
<svg xmlns="http://www.w3.org/2000/svg" xml:space="preserve" width="63px" height="70px" version="1.1" shape-rendering="geometricPrecision" text-rendering="geometricPrecision" image-rendering="optimizeQuality" fill-rule="evenodd" clip-rule="evenodd"
viewBox="0 0 99 110"
 xmlns:xlink="http://www.w3.org/1999/xlink">
 <g id="e-1">
  <metadata id="CorelCorpID_0Corel-Layer"/>
  <g id="_2284557163712">
   <polygon fill="#252525" stroke="#2B2A29" stroke-width="0.777778" points="63,14 49,14 35,14 22,18 14,26 14,105 18,109 49,109 81,109 84,105 84,26 77,18 "/>
   <path fill="#1C1C1C" d="M15 26l0 79c4,-26 4,-52 0,-79z"/>
   <path fill="#1C1C1C" d="M84 26l0 79c-4,-26 -4,-53 0,-79z"/>
   <path fill="#1C1C1C" d="M15 26l7 -8c-1,4 -3,7 -7,8z"/>
   <path fill="#1C1C1C" d="M22 18l13 -3c-3,2 -9,3 -13,3z"/>
   <path fill="#1C1C1C" d="M35 15l28 0c-9,1 -19,1 -28,0z"/>
   <path fill="#1C1C1C" d="M84 26l-8 -8c2,4 4,7 8,8z"/>
   <path fill="#1C1C1C" d="M76 18l-13 -3c4,2 9,3 13,3z"/>
   <polygon fill="#252525" stroke="#2B2A29" stroke-width="0.777778" points="14,105 14,26 22,18 35,14 49,14 63,14 77,18 84,26 84,105 95,105 98,98 98,16 87,5 69,0 49,0 30,0 12,5 0,16 0,98 4,105 "/>
  </g>
 </g>
</svg>
